<?xml version="1.0" standalone="no"?>
<!DOCTYPE svg PUBLIC "-//W3C//DTD SVG 20010904//EN"
 "http://www.w3.org/TR/2001/REC-SVG-20010904/DTD/svg10.dtd">
<svg version="1.0" xmlns="http://www.w3.org/2000/svg"
 width="700.000000pt" height="700.000000pt" viewBox="0 0 700.000000 700.000000"
 preserveAspectRatio="xMidYMid meet">
<metadata>
Created by potrace 1.14, written by Peter Selinger 2001-2017
</metadata>
<g transform="translate(0.000000,700.000000) scale(0.100000,-0.100000)"
fill="#000000" stroke="none">
<path d="M3288 6225 c-1 -2 -34 -6 -73 -10 -38 -4 -79 -9 -90 -11 -11 -2 -33
-6 -50 -9 -16 -3 -43 -7 -60 -10 -16 -3 -52 -10 -80 -14 -78 -14 -165 -38
-313 -87 -566 -189 -1081 -590 -1417 -1104 -117 -179 -261 -497 -324 -713 -76
-260 -102 -441 -105 -747 -3 -219 7 -341 40 -510 23 -114 24 -118 40 -178 8
-32 17 -66 19 -76 20 -91 113 -334 179 -466 264 -528 692 -960 1211 -1220 180
-90 207 -102 355 -152 148 -50 271 -83 390 -103 52 -9 106 -18 120 -20 140
-24 571 -25 720 -1 19 3 51 7 70 10 50 7 133 24 230 48 47 11 90 21 95 22 111
25 320 106 470 183 386 197 687 444 937 768 49 63 164 227 195 280 36 59 163
323 196 405 54 138 119 366 143 506 3 16 7 36 9 44 4 16 12 82 24 203 12 127
2 581 -14 607 -1 3 -6 27 -9 53 -16 117 -73 347 -119 482 -109 316 -332 686
-561 934 -119 128 -342 331 -364 331 -6 0 -12 4 -14 8 -4 11 -143 107 -233
162 -278 170 -659 309 -970 354 -23 4 -50 8 -60 10 -79 15 -575 33 -587 21z"/>
</g>
</svg>
